<?xml version="1.0" encoding="UTF-8"?>
<!-- Generator: Adobe Illustrator 16.0.0, SVG Export Plug-In . SVG Version: 6.00 Build 0)  -->
<!DOCTYPE svg PUBLIC "-//W3C//DTD SVG 1.1//EN" "http://www.w3.org/Graphics/SVG/1.1/DTD/svg11.dtd">
<svg version="1.1" id="Layer_1" xmlns="http://www.w3.org/2000/svg" xmlns:xlink="http://www.w3.org/1999/xlink" x="0px" y="0px" width="1600px" height="900px" viewBox="0 0 1600 900" enable-background="new 0 0 1600 900" xml:space="preserve">
<g>
	<path d="M479.844,218.938c0.11-1.793,0.048-1.837-0.02-1.292C479.856,218.07,479.871,218.5,479.844,218.938z"/>
	<path d="M452.224,229.746c0.747,1.164,1.486,2.333,2.213,3.51c3.405,5.509,6.51,11.201,9.418,16.986   c4.375,8.703,18.482,4.543,18.163-4.916c-0.174-5.159-0.505-10.304-1.013-15.44c-0.331-3.351-0.788-6.688-1.242-10.025   c-0.079-0.579-0.006-1.681,0.061-2.215c-0.17-2.274-1.084-4.373-1.805-6.517c-3.561-10.578-8.005-20.936-13.125-30.853   c-9.109-17.645-21.41-33.985-35.672-47.792c-29.184-28.255-68.847-42.111-108.482-47.1   c-79.573-10.016-162.33,25.651-215.481,84.357c-31.502,34.794-52.469,78.12-66.658,122.526   c-15.223,47.641-23.36,97.578-24.347,147.565c-1.976,100.013,24.55,203.59,87.64,282.62c27.681,34.674,63.82,62.019,104.678,79.287   c41.048,17.35,84.404,23.265,128.415,15.219c18.286-3.342,35.999-10.076,52.499-18.541c9.483-4.863,18.08-11.954,26.262-18.662   c6.681-5.477,12.849-11.559,18.572-18.021c1.274-1.439,2.51-2.914,3.734-4.396c0.741-0.896,1.463-1.808,2.185-2.719l4.788-6.194   c-4.949,6.408-4.474,5.796,1.424-1.836c2.12-3.758,4.087-7.591,5.938-11.487c4.805-10.112,8.987-20.588,12.274-31.292   c1.368-4.455,2.531-8.97,3.584-13.508c0.096-0.423,0.191-0.846,0.287-1.27c0.804-6.816,0.981-7.672,0.531-2.566   c0.676-2.039,0.763-5.613,1.045-8.106c0.285-2.524,0.498-5.057,0.688-7.59c0.036-0.375,0.057-0.645,0.072-0.858   c0.156-0.796,0.298-1.596,0.453-2.382c0.542-2.752,1.009-5.517,1.454-8.283c1.057-6.58,1.887-13.205,2.53-19.836   c0.637-6.575-5.067-12.868-11.059-14.515c-7.984-2.195-16.26,2.634-18.529,10.513c-2.407,8.359-5.492,16.392-8.465,24.524   c-1.106,1.567-2.162,3.167-3.231,4.793c-0.894,1.361-6.036,8.803-1.665,3.263c-4.319,5.473-7.781,11.541-11.8,17.24   c-0.636,0.901-2.479,3.354-3.294,4.456c-0.822,1.013-1.652,2.017-2.49,3.015c-3.289,3.914-6.785,7.65-10.403,11.262   c-6.795,6.781-13.139,14.013-20.162,20.577c-2.383,2.228-4.851,4.363-7.372,6.435c-0.964,0.737-2.062,1.569-2.748,2.06   c-2.089,1.492-4.23,2.912-6.39,4.302c-7.615,4.899-15.443,9.624-23.554,13.663c-1.676,0.834-3.375,1.62-5.082,2.392   c-0.145,0.058-0.289,0.117-0.434,0.174c-4.383,1.725-8.854,3.218-13.366,4.562c-4.167,1.242-8.392,2.28-12.642,3.195   c-2.128,0.46-4.27,0.856-6.414,1.233c-0.846,0.148-1.694,0.28-2.542,0.414c-8.659,0.986-17.392,1.281-26.101,1.031   c-4.494-0.131-8.981-0.463-13.453-0.912c-0.707-0.071-1.413-0.157-2.119-0.238c-2.167-0.33-4.328-0.694-6.483-1.091   c-9.577-1.76-19.002-4.297-28.229-7.393c-2.251-0.755-4.482-1.566-6.707-2.397c-0.512-0.191-1.02-0.393-1.53-0.591   c-0.067-0.028-0.131-0.058-0.191-0.085c-4.817-2.175-9.536-4.563-14.185-7.075c-9.192-4.968-17.991-10.646-26.427-16.803   c-0.767-0.56-1.523-1.133-2.281-1.704c-2.004-1.584-3.974-3.214-5.928-4.859c-4.39-3.695-8.62-7.576-12.746-11.563   c-8.129-7.854-15.676-16.306-22.78-25.089c-0.601-0.743-1.19-1.495-1.781-2.245c-0.132-0.17-0.254-0.331-0.35-0.457   c-1.659-2.191-3.274-4.415-4.873-6.649c-3.486-4.87-6.799-9.861-10.006-14.917c-6.244-9.844-11.901-20.05-17.121-30.47   c-2.536-5.062-4.925-10.196-7.229-15.367c-0.531-1.192-1.048-2.392-1.566-3.59c-0.011-0.026-0.02-0.048-0.032-0.076   c-1.282-3.09-2.508-6.203-3.713-9.325c-4.341-11.249-8.122-22.712-11.485-34.29c-3.404-11.72-6.265-23.593-8.716-35.546   c-1.185-5.777-2.233-11.581-3.202-17.397c-0.485-2.916-0.931-5.838-1.363-8.761c-0.077-0.521-0.147-1.042-0.221-1.563   c-0.062-0.51-0.466-3.534-0.571-4.382c-3.026-24.592-4.101-49.413-3.458-74.175c0.32-12.313,1.148-24.611,2.387-36.865   c0.296-2.925,0.631-5.846,0.98-8.765c0.112-0.933,0.233-1.864,0.352-2.796c0.094-0.713,0.207-1.558,0.26-1.938   c0.887-6.273,1.928-12.524,3.068-18.757c4.311-23.566,10.798-46.469,19.453-68.809c0.987-2.546,2.015-5.077,3.055-7.601   c0.059-0.137,0.124-0.286,0.199-0.461c0.549-1.276,1.112-2.546,1.676-3.816c2.425-5.467,5.014-10.859,7.71-16.197   c5.101-10.099,10.755-19.915,16.871-29.432c2.773-4.316,5.678-8.542,8.722-12.673c0.385-0.522,0.78-1.037,1.171-1.555   c0.227-0.292,0.444-0.572,0.601-0.769c1.726-2.173,3.507-4.302,5.309-6.412c6.385-7.475,13.292-14.495,20.553-21.119   c3.458-3.154,7.03-6.181,10.664-9.129c0.68-0.551,1.368-1.092,2.055-1.634c2.134-1.614,4.305-3.178,6.49-4.721   c7.85-5.542,16.061-10.564,24.501-15.153c4.025-2.188,8.125-4.237,12.264-6.2c2.063-0.978,4.146-1.913,6.234-2.834   c0.031-0.014,0.064-0.028,0.097-0.042c0.959-0.393,1.918-0.786,2.881-1.169c8.729-3.471,17.677-6.381,26.746-8.826   c8.968-2.417,17.98-4.507,27.152-6.003c0.913-0.149,1.83-0.285,2.746-0.421c1.788-0.216,3.578-0.413,5.37-0.59   c4.714-0.468,9.444-0.753,14.178-0.918c8.999-0.314,18.015-0.001,26.978,0.841c0.951,0.089,1.901,0.192,2.85,0.299   c1.025,0.149,3.851,0.537,4.925,0.715c4.546,0.751,9.058,1.703,13.537,2.782c8.34,2.009,16.516,4.669,24.48,7.849   c0.693,0.307,1.386,0.614,2.076,0.927c1.922,0.873,3.82,1.799,5.708,2.743c4.1,2.05,8.096,4.304,12.012,6.683   c4.237,2.573,8.331,5.391,12.474,8.11c2.08,1.364,4.114,2.797,6.128,4.257c0.299,0.216,0.774,0.574,1.247,0.932   c0.72,0.576,1.443,1.148,2.156,1.732c8.597,7.05,16.388,15.046,23.408,23.656c0.181,0.222,0.487,0.607,0.781,0.979   c0.651,0.865,1.304,1.729,1.943,2.604c1.625,2.222,3.176,4.496,4.698,6.789c3.346,5.04,6.393,10.272,9.242,15.605   c1.368,2.56,2.655,5.163,3.909,7.779c-1.128-2.762-0.793-1.989,1.005,2.319C451.109,228.288,451.806,229.204,452.224,229.746z"/>
</g>
<path d="M707.913,552.033c-1.385-27.443-7.744-54.781-21.091-79.05c-13.107-23.833-35.432-44.752-62.574-51.383  c-8.586-2.098-17.609-3.144-26.454-3.222c-5.389-0.048-10.795,0.274-15.893,2.107c-4.43,1.594-9.461,3.173-13.574,5.78  c-0.63,0.317-1.224,0.671-1.783,1.059c-13.96,0.437-27.642,4.271-39.831,12.751c-24.32,16.921-38.813,43.848-46.73,71.578  c-8.727,30.569-9.566,63.011-4.531,94.247c4.741,29.41,16.691,58.526,36.87,80.966c19.411,21.584,49.207,33.983,78.199,35.355  c25.539,1.209,49.766-9.267,68.161-26.318c18.772-17.402,30.908-41.306,38.854-65.15  C705.896,605.671,709.243,578.372,707.913,552.033z M665.966,591.384c-0.228,2.918-0.536,5.827-0.89,8.731  c-0.014,0.095-0.027,0.183-0.043,0.287c-0.259,1.731-0.551,3.459-0.855,5.183c-1.073,6.066-2.466,12.077-4.133,18.011  c-1.31,4.663-2.844,9.262-4.563,13.792c-0.232,0.469-1.6,3.734-1.871,4.473c-0.421,0.898-0.842,1.798-1.278,2.689  c-1.313,2.678-2.729,5.305-4.216,7.893c-1.344,2.337-2.78,4.622-4.275,6.869c-0.736,1.105-1.5,2.192-2.274,3.272  c-0.3,0.419-0.872,1.17-1.384,1.837c-3.066,3.743-6.405,7.266-10.002,10.517c-0.935,0.844-1.896,1.658-2.866,2.462  c-0.172,0.143-0.35,0.28-0.523,0.42c-1.997,1.451-4.063,2.808-6.187,4.069c-2.134,1.269-4.345,2.407-6.596,3.459  c-0.183,0.085-0.369,0.163-0.552,0.246c-1.17,0.448-2.353,0.864-3.544,1.255c-2.413,0.792-4.877,1.425-7.36,1.96  c-1.081,0.234-2.171,0.427-3.263,0.606c-0.447,0.046-0.894,0.1-1.341,0.14c-5,0.453-10.038,0.359-15.033-0.117  c-0.88-0.121-2.371-0.32-3.029-0.436c-1.497-0.261-2.985-0.572-4.468-0.899c-3.364-0.744-6.679-1.689-9.956-2.741  c-1.586-0.508-3.157-1.066-4.721-1.638c-0.631-0.231-2.554-1.003-3.427-1.346c-2.657-1.18-5.246-2.491-7.771-3.931  c-2.571-1.467-5.037-3.107-7.431-4.838c-0.539-0.429-1.072-0.865-1.602-1.305c-1.41-1.168-2.767-2.398-4.103-3.648  c-2.309-2.161-4.478-4.465-6.562-6.836c-0.654-0.743-1.288-1.503-1.915-2.269c0.41,0.464-2.114-2.808-2.688-3.616  c-3.991-5.63-7.362-11.694-10.262-17.932c-0.304-0.656-0.981-1.316-0.981-1.977c0-0.001,0-0.002,0-0.003  c0-1.576-1.179-3.169-1.779-4.765c-1.32-3.507-2.438-7.068-3.511-10.654c-2.109-7.05-3.683-14.243-4.92-21.489  c-0.206-1.208-0.369-2.42-0.548-3.631c-0.084-0.724-0.425-3.359-0.504-4.072c-0.43-3.882-0.718-7.777-0.926-11.676  c-0.399-7.507-0.344-15.035,0.065-22.541c0.195-3.58,0.506-7.154,0.888-10.721c0.074-0.69,0.393-3.156,0.49-3.971  c0.225-1.505,0.463-3.007,0.719-4.507c1.217-7.136,2.882-14.196,4.94-21.142c0.961-3.241,2.044-6.446,3.206-9.623  c0.572-1.563,1.181-3.111,1.804-4.654c0.049-0.12,0.114-0.279,0.186-0.45c0.314-0.711,0.629-1.423,0.953-2.13  c2.753-6.008,5.995-11.796,9.688-17.292c0.856-1.274,1.754-2.521,2.666-3.758c0.094-0.129,0.222-0.297,0.354-0.472  c0.212-0.261,0.42-0.522,0.633-0.781c2.046-2.484,4.249-4.841,6.553-7.094c1.682-1.646,3.465-3.182,5.292-4.667  c0.67-0.496,1.923-1.437,2.417-1.772c1.382-0.941,2.81-1.815,4.255-2.657c2.468-1.439,5.062-2.682,7.629-3.936  c0.522-0.255,1.054-0.492,1.584-0.731c1.458-0.564,2.941-1.069,4.435-1.535c2.835-0.885,5.741-1.533,8.668-2.041  c0.13-0.021,0.301-0.049,0.482-0.077c0.043-0.003,0.086-0.008,0.129-0.013c3.083,1.407,6.71,2.052,9.875,3.074  c3.233,1.044,6.141,2.02,9.508,2.554c5.986,0.948,11.861,2.522,17.536,4.615c0.044,0.017,0.088,0.035,0.132,0.052  c0.871,0.399,1.737,0.81,2.596,1.234c2.62,1.296,5.071,2.847,7.608,4.282c2.323,1.313,4.693,2.504,6.962,3.917  c1.124,0.699,2.221,1.438,3.309,2.188c0.118,0.081,0.232,0.166,0.35,0.249c3.962,3.213,7.622,6.78,10.998,10.584  c0.887,0.999,1.742,2.024,2.587,3.057c0.008,0.01,0.015,0.019,0.022,0.028c1.5,1.996,2.938,4.038,4.305,6.124  c3.171,4.837,5.934,9.927,8.403,15.144c0.291,0.616,0.561,1.241,0.841,1.862c0.193,0.462,0.376,0.906,0.51,1.243  c1.153,2.91,2.193,5.861,3.167,8.832c1.906,5.816,3.441,11.747,4.71,17.728c0.618,2.91,1.146,5.839,1.622,8.774  c0.055,0.338,0.124,0.795,0.195,1.279c0.145,1.18,0.294,2.36,0.421,3.544C666.853,566.102,666.949,578.791,665.966,591.384z"/>
<path d="M952.177,677.804c-0.266-0.024-0.948-0.095-1.673-0.168c-3.683-2.639-8.009-3.775-13.07-5.161  c-4.971-1.36-9.712-3.703-14.688-4.914c-4.927-1.197-9.888-2.002-14.768-3.444c-2.384-0.706-4.732-1.521-7.066-2.371  c-1.16-0.423-2.308-0.88-3.454-1.338c0.205,0.082,0.391,0.156,0.573,0.229c-1.821-0.721-4.12-1.625-5.144-2.005  c-0.238-0.088-0.56-0.212-0.895-0.345c-0.553-0.244-1.109-0.479-1.66-0.728c-2.224-1-4.403-2.092-6.566-3.212  c-4.313-2.233-8.47-4.752-12.521-7.412c-1.966-1.292-3.883-2.652-5.783-4.032c-0.901-0.703-1.791-1.422-2.678-2.141  c-4.124-3.345-8.049-6.92-11.854-10.608c-3.521-3.413-6.876-6.987-10.135-10.64c-1.631-1.828-3.214-3.695-4.781-5.573  c-0.764-0.915-1.513-1.843-2.263-2.769c-0.036-0.048-0.069-0.09-0.109-0.143c-3.006-3.88-5.868-7.866-8.647-11.905  c-1.246-1.81-2.457-3.643-3.658-5.482c3.095,0.526,6.24,0.936,9.418,1.317c20.643,2.48,41.452-3.24,60.131-11.358  c18.578-8.073,35.563-21.723,45.551-39.164c10.485-18.308,13.892-39.657,8.853-60.11c-8.247-33.471-42.736-55.394-75.275-61.815  c-32.896-6.492-74.345-1.204-96.753,25.825c-0.39,0.47-0.771,0.946-1.148,1.425c-0.93-2.137-1.846-4.279-2.784-6.413  c-2.791-6.344-13.008-4.212-14.515,1.86c-1.099,4.425-2.214,8.846-3.348,13.262c-1.531,5.969-2.067,11.771-2.406,17.896  c-0.576,10.429-1.591,20.847-1.575,31.291c0.035,21.722-0.496,43.442-1.614,65.136c-1.088,21.114-2.568,42.239-4.027,63.331  c-0.718,10.381-2.542,20.971-2.144,31.366c0.21,5.485,0.345,10.975,0.438,16.463c0.108,6.334,1.969,12.542,3.324,18.704  c2.934,13.333,22.773,15.291,29.251,3.748c2.694-4.802,6.273-9.982,7.768-15.279c1.485-5.264,2.918-10.54,4.302-15.828  c3.166-12.108,3.664-24.879,4.577-37.321c0.613-8.35,0.984-16.667,1.176-24.979c8.136,15.549,19.065,30.084,30.303,43.229  c13.935,16.298,31.134,30.607,50.355,40.546c10.571,5.466,21.88,9.05,33.631,11.054c4.021,0.686,8.084,1.167,12.137,1.639  c3.683,0.429,8.089-0.825,11.836-1.471c6.12-1.057,13.312-2.326,18.793-5.275c1.721-0.927,3.714-2.236,5.044-3.541  c0.074-0.072,0.211-0.273,0.386-0.558c0.646-0.229,1.291-0.454,1.934-0.692C966.199,693.779,964.086,678.915,952.177,677.804z   M783.573,464.515c0.113-0.092,0.201-0.164,0.285-0.232c0.123-0.085,0.299-0.208,0.56-0.396c0.693-0.499,1.408-0.967,2.123-1.434  c1.451-0.948,2.963-1.805,4.489-2.629c1.52-0.821,3.088-1.555,4.667-2.258c0.14-0.039,0.323-0.093,0.603-0.182  c1.63-0.521,3.183-1.336,4.744-2.058c0.394-0.168,0.837-0.356,1.024-0.429c0.85-0.328,1.71-0.628,2.57-0.927  c1.742-0.608,3.515-1.132,5.293-1.628c3.474-0.971,7.017-1.683,10.579-2.253c-0.077,0.045,3.656-0.435,4.467-0.504  c1.927-0.166,3.86-0.255,5.793-0.322c4.239-0.145,8.499,0.001,12.738,0.091c3.32,0.072,6.635,0.319,9.937,0.667  c-0.067,0.024,3.718,0.535,4.596,0.688c2.241,0.394,4.464,0.877,6.677,1.397c3.751,0.882,7.44,1.996,11.074,3.259  c0.678,0.235,3.066,1.189,3.914,1.514c1.495,0.669,2.976,1.369,4.437,2.105c3.245,1.638,6.356,3.518,9.354,5.556  c0.353,0.239,0.693,0.493,1.039,0.742c0.271,0.206,0.544,0.416,0.724,0.563c1.575,1.274,3.065,2.647,4.515,4.059  c0.837,0.815,1.63,1.669,2.41,2.535c-1.316-1.389,1.181,1.935,1.778,3.006c0.354,0.634,1.146,2.358,1.551,3.219  c0.427,1.188,0.807,2.392,1.154,3.604c0.395,1.376,0.688,2.776,0.951,4.183c0.055,0.658,0.096,1.316,0.131,1.976  c0.099,1.864,0.041,3.734-0.052,5.598c-0.03,0.629-0.084,1.257-0.144,1.884c-0.497,2.813-1.261,5.574-2.204,8.273  c-0.438,0.995-1.251,2.868-1.688,3.684c-0.905,1.691-1.931,3.319-2.989,4.923c-0.383,0.579-0.793,1.14-1.199,1.703  c-0.978,1.135-1.987,2.24-3.027,3.317c-2.742,2.84-5.822,5.343-8.712,8.031c-1.234,1.148-2.526,2.235-3.832,3.305  c-0.412,0.287-0.818,0.582-1.232,0.866c-3.639,2.502-7.493,4.688-11.444,6.675c-0.733,0.369-1.479,0.718-2.224,1.063  c-1.155,0.462-2.947,1.181-3.867,1.502c-3.853,1.341-7.806,2.393-11.796,3.256c-0.902,0.195-1.811,0.367-2.72,0.53  c-1.117,0.143-2.442,0.304-3.238,0.361c-3.93,0.289-7.878,0.249-11.808-0.018c-0.222-0.015-0.443-0.036-0.665-0.055  c-1.539-0.276-3.068-0.604-4.586-0.975c-3.66-0.896-7.186-2.092-10.861-2.939c-1.738-0.4-3.444-0.924-5.134-1.489  c-1.701-0.826-3.42-1.683-5.137-2.07c-4.869-1.1-11.646-1.513-17.235-0.145c-1.377-0.577-2.716-0.74-3.965-0.581  c-0.67-9.164-1.434-18.322-2.286-27.471c-1.055-11.326-3.28-22.45-5.453-33.611c-0.365-1.876-0.737-3.692-1.153-5.48  C780.475,467.178,781.95,465.835,783.573,464.515z M955.502,694.799c-0.177,0.133-0.353,0.266-0.528,0.398  C956.134,693.116,956.987,691.607,955.502,694.799z"/>
<g>
	<path d="M1010.349,702.784c-0.075,0.08-0.147,0.17-0.224,0.244C1010.281,702.877,1010.348,702.803,1010.349,702.784z"/>
	<g>
		<path d="M1241.988,589.908C1243.219,591.322,1244.062,592.251,1241.988,589.908L1241.988,589.908z"/>
		<path d="M1254.902,615.283c-2.644-8.95-6.456-17.349-12.347-24.667c-0.406-0.505-0.822-0.997-1.253-1.482    c0.259,0.291,0.484,0.547,0.686,0.774c-0.672-0.772-1.459-1.688-1.949-2.295c-0.849-1.05-1.751-2.041-2.711-2.996    c-2.962-2.943-6.491-5.454-10.031-7.685c-14.136-8.905-31.801-11.702-48.194-13.367c-6.333-0.643-12.719-0.931-19.119-0.979    c23.28-27.015,32.092-64.761,13.373-97.09c-19.284-33.307-61.066-46.668-98.272-45.412c-19.178,0.647-38.258,4.502-54.416,14.899    c-14.177,9.122-25.927,21.482-32.029,37.096c-0.321,0.821-0.6,1.657-0.878,2.494c-1.077,3.233,0.96,5.568,3.575,6.273    c1.504,38.56,0.068,77.17,0.448,115.734c0.2,20.352-0.142,40.727-1.464,61.041c-0.539,8.281-1.288,16.553-2.343,24.788    c-0.224,1.688-0.176,1.354,0.144-0.997c-0.472,3.378-0.592,5.563,0.215,8.919c0.41,1.707,0.813,3.415,1.189,5.13    c0.782,3.565,2.722,6.385,4.331,9.602c2.292,4.583,8.362,4.292,11.815,1.487c0.903-0.732,1.795-1.477,2.68-2.229    c-3.505,2.984,2.012-1.697,1.997-1.538c0.958-1.001,1.861-2.338,2.57-3.541c1.401-2.379,2.653-4.634,3.639-6.994    c2.255,1.662,4.588,3.255,6.98,4.825c13.8,9.063,28.639,14.521,44.835,17.939c34.145,7.207,69.922,7.936,104.15,0.873    c29.617-6.11,61.361-22.67,75.566-49.934C1255.925,650.915,1259.776,631.783,1254.902,615.283z M1214.795,630.483    c-0.026,0.733-0.075,1.468-0.135,2.198c-0.112,0.786-0.248,1.661-0.365,2.221c-0.485,2.306-1.156,4.571-1.96,6.792    c-0.283,0.634-0.592,1.306-0.826,1.755c-0.655,1.256-1.388,2.473-2.144,3.673c-0.504,0.802-1.045,1.579-1.598,2.35    c-0.361,0.414-0.716,0.833-1.086,1.24c-1.955,2.152-4.104,4.132-6.336,6.008c-0.148,0.124-0.303,0.242-0.453,0.363    c-1.189,0.833-2.402,1.635-3.634,2.408c-2.656,1.668-5.428,3.155-8.244,4.548c-1.177,0.579-2.372,1.123-3.572,1.656    c-0.524,0.201-1.047,0.408-1.573,0.604c-6.754,2.512-13.773,4.351-20.791,6.013c-3.528,0.835-7.09,1.53-10.664,2.149    c-1.474,0.256-2.953,0.482-4.434,0.7c-0.797,0.094-1.594,0.188-2.393,0.273c-13.316,1.431-26.775,1.554-40.137,0.7    c-3.193-0.204-6.382-0.488-9.564-0.816c-1.155-0.118-2.309-0.259-3.461-0.397c-0.641-0.093-1.282-0.186-1.922-0.283    c-6.458-0.976-12.866-2.256-19.209-3.789c-11.655-2.819-23.642-5.19-35.012-8.999c-1.237-0.414-2.463-0.86-3.686-1.313    c-0.347-0.129-0.898-0.349-1.436-0.567c-0.014-0.005-0.027-0.01-0.04-0.017c-1.377-0.566-2.755-1.134-4.132-1.701    c4.053,1.697,3.599,1.518-1.363-0.538c-1.377-0.343-2.746-0.712-4.108-1.108c-0.028-0.009-0.056-0.019-0.085-0.026    c0.707-19.989,0.365-40.018-0.409-59.997c-1.6-41.254-8.657-82.692-18.437-122.867c3.32-3.726,7.125-6.942,10.93-9.435    c3.151-2.065,6.51-3.816,9.937-5.399c0.138-0.064,1.296-0.56,1.673-0.73c0.663-0.259,1.327-0.517,1.995-0.766    c2.138-0.793,4.318-1.473,6.509-2.11c8.135-2.365,16.689-4.344,25.039-5.841c1.04-0.188,2.085-0.348,3.13-0.508    c0.137-0.022,0.254-0.039,0.361-0.057c0.035-0.004,0.063-0.007,0.101-0.012c2.111-0.253,4.231-0.431,6.353-0.582    c4.621-0.329,9.261-0.36,13.89-0.203c2.139,0.071,4.273,0.222,6.405,0.399c1.064,0.089,2.127,0.204,3.188,0.318    c0.113,0.013,0.217,0.024,0.312,0.034c0.015,0.002,0.027,0.004,0.043,0.006c4.524,0.645,8.998,1.596,13.412,2.754    c3.538,0.928,7.011,2.078,10.427,3.369c-0.336-0.087,3.544,1.54,4.335,1.919c2.12,1.015,4.188,2.125,6.224,3.292    c1.729,0.992,3.403,2.071,5.054,3.183c0.361,0.243,0.71,0.503,1.063,0.756c0.401,0.308,1.093,0.829,1.381,1.064    c3.292,2.675,6.278,5.688,9.018,8.897c0.014,0.02,0.021,0.029,0.037,0.051c0.591,0.782,1.145,1.591,1.697,2.398    c1.118,1.633,2.118,3.339,3.076,5.064c0.395,0.71,1.798,3.8,2.021,4.195c0.743,1.99,1.352,4.034,1.905,6.076    c0.446,1.649,0.779,3.325,1.081,5.004c0.084,0.826,0.146,1.656,0.202,2.484c0.112,1.701,0.102,3.408,0.059,5.113    c-0.022,0.89-0.446,4.418-0.435,4.723c-0.39,2.111-0.914,4.219-1.609,6.251c-0.339,0.716-1.188,2.653-1.483,3.222    c-0.929,1.785-1.981,3.507-3.068,5.203c-0.85,1.328-1.771,2.608-2.709,3.877c-0.476,0.567-0.951,1.134-1.437,1.691    c-2.543,2.916-5.343,5.611-8.246,8.183c-1.268,1.123-2.583,2.192-3.908,3.249c-0.564,0.406-1.127,0.815-1.696,1.215    c-3.33,2.335-6.822,4.442-10.38,6.43c-3.285,1.834-6.678,3.482-10.111,5.03c-1.345,0.572-4.05,1.729-5.328,2.271    c-1.833,0.778-3.62,1.671-5.439,2.487c-0.689,0.267-1.378,0.536-2.07,0.797c-1.775,0.665-3.572,1.274-5.374,1.869    c-3.923,1.292-7.921,2.363-11.949,3.293c-1.805,0.419-3.623,0.774-5.444,1.112c-0.791,0.148-2.707,0.434-3.744,0.595    c-2.967,0.299-5.945,0.468-8.927,0.538c-3.786,0.089-7.573-0.093-11.34-0.461c-5.002-0.488-9.639,1.16-14.48,2.039    c-5.923,1.076-10.852,6.653-12.384,12.089c-2.308,8.19,1.721,14.755,8.148,19.544c1.49,1.111,3.012,2.17,4.571,3.185    c4.511,2.935,8.911,3.333,14.145,3.97c4.459,0.541,8.965,0.655,13.453,0.557c10.601-0.234,21.33-1.894,31.604-4.415    c12.312-3.021,23.729-7.642,34.328-13.743c8.836,0.009,17.673,0.261,26.49,0.832c4.354,0.282,8.699,0.673,13.035,1.146    c0.96,0.104,1.917,0.222,2.875,0.339c0.143,0.02,0.313,0.044,0.524,0.073c2.351,0.33,4.692,0.719,7.033,1.107    c7.696,1.276,15.315,3.094,22.646,5.729c0.456,0.165,0.907,0.345,1.359,0.519c0.104,0.045,0.205,0.088,0.289,0.125    c1.46,0.646,2.885,1.369,4.291,2.119c1.35,0.721,2.653,1.52,3.935,2.348c0.186,0.12,0.362,0.253,0.545,0.377    c0.289,0.222,0.574,0.446,0.775,0.618c1.057,0.901,2.035,1.886,2.979,2.899c0.021,0.022,0.038,0.04,0.059,0.062    c0.031,0.05,0.069,0.108,0.104,0.161c0.051,0.16,0.102,0.318,0.15,0.478c0.188,0.613,0.334,1.238,0.478,1.862    C1215.303,616.802,1215.035,623.728,1214.795,630.483z"/>
	</g>
</g>
<path d="M1341.085,666.352c-3.304-10.629-5.848-21.531-8.003-32.497c-1.054-5.359-1.966-10.749-2.811-16.15  c-0.471-3.015-0.896-6.037-1.309-9.062c-0.101-0.739-0.192-1.48-0.288-2.221c-0.062-0.527-0.309-2.547-0.374-3.122  c-1.443-12.608-2.385-25.28-2.99-37.967c-1.17-24.556-0.259-49.095,0.093-73.651c0.156-10.943,0.698-21.881,1.647-32.776  c0.874-10.021,0.158-19.803,0.243-29.862c0.074-8.823-10.687-11.511-14.799-4.365c-5.541,9.629-10.323,19.123-12.995,30.167  c-2.794,11.543-5.002,23.25-6.874,35.008c-4.286,26.926-4.5,54.608-3.631,81.869c0.858,26.928,3.521,53.957,8.483,80.363  c2.1,11.175,4.779,22.226,8.178,33.017c2.361,7.495,6.671,12.937,11.523,18.587c5.406,6.294,17.075,8.09,22.688,1.149  C1348.699,693.918,1344.924,678.705,1341.085,666.352z"/>
<path d="M1570.698,698.693c-1.082-21.394-2.705-42.758-3.429-64.17c-0.758-22.397-0.741-44.985-2.255-67.33  c-1.525-22.528-2.737-45.085-3.421-67.666c-0.358-11.839,0.932-25.163-2.024-36.604c-1.293-5.005-2.531-10.029-3.744-15.059  c-1.694-7.029-4.336-11.826-8.828-17c-4.103-4.723-10.465-4.115-14.635,0c-4.377,4.32-7.184,8.535-9.016,14.851  c-1.451,5.001-2.842,10.024-4.212,15.055c-3.178,11.673-2.249,24.343-2.146,36.425c0.197,22.57,1.03,45.13,2.112,67.667  c1.078,22.496,4.169,44.983,6.544,67.351c0.6,5.643,1.139,11.293,1.634,16.948c-3.551-4.048-6.996-8.212-10.353-12.456  c-3.715-4.697-7.278-9.542-10.765-14.451c-0.196-0.28-0.354-0.502-0.489-0.697c-0.73-1.069-1.459-2.141-2.183-3.216  c-1.896-2.819-3.745-5.679-5.579-8.549c-7.166-11.214-13.818-22.83-20.145-34.653c-12.417-23.21-23.317-47.425-33.094-72.146  c-0.892-2.255-1.762-4.521-2.632-6.786c-0.316-0.837-0.901-2.38-1.021-2.699c-0.591-1.587-1.172-3.18-1.753-4.771  c-2.088-5.719-4.093-11.475-6.048-17.252c-3.828-11.316-7.361-22.758-10.616-34.297c-2.434-8.627-9.187-14.842-17.47-14.842  c-10.572,0-17.198,9.249-18.118,20.217c-3.771,45.008-3.086,90.228-1.741,135.346c0.665,22.312,1.372,44.622,1.609,66.945  c0.107,10.313,1.979,20.812,2.877,31.087c0.938,10.729,3.884,20.823,7.152,30.886c1.023,3.149,4.926,4.161,6.579,0.96  c4.085-7.912,8.627-17.146,10.104-26.24c1.862-11.46,3.655-23.011,4.818-34.587c1.05-10.449,0.406-21.48,0.497-31.992  c0.101-11.621,0.127-23.242,0.165-34.862c0.042-13.016,0.048-26.046,0.13-39.08c7.824,18.97,16.388,37.54,25.678,55.564  c23.938,46.445,54.414,92.673,95.813,121.317C1553.106,726.492,1571.549,715.5,1570.698,698.693z"/>
</svg>