<?xml version="1.0" encoding="UTF-8" standalone="no"?>
<!-- Created with Inkscape (http://www.inkscape.org/) -->

<svg
   xmlns:dc="http://purl.org/dc/elements/1.1/"
   xmlns:cc="http://creativecommons.org/ns#"
   xmlns:rdf="http://www.w3.org/1999/02/22-rdf-syntax-ns#"
   xmlns:svg="http://www.w3.org/2000/svg"
   xmlns="http://www.w3.org/2000/svg"
   version="1.1"
   width="252.5"
   height="371.75781"
   id="svg2"
   xml:space="preserve"><metadata
     id="metadata8"><rdf:RDF><cc:Work
         rdf:about=""><dc:format>image/svg+xml</dc:format><dc:type
           rdf:resource="http://purl.org/dc/dcmitype/StillImage" /><dc:title></dc:title></cc:Work></rdf:RDF></metadata><defs
     id="defs6"><clipPath
       id="clipPath18"><path
         d="m 205.529,248.11 198.953,0 0,294.362 -198.953,0 0,-294.362 z"
         id="path20" /></clipPath><clipPath
       id="clipPath30"><path
         d="M 0,792 612,792 612,0 0,0 0,792 z"
         id="path32" /></clipPath></defs><g
     transform="matrix(1.25,0,0,-1.25,-255,680)"
     id="g10"><path
       d="m 205.528,542.472 198.953,0 0,-294.362 -198.953,0 0,294.362 z"
       id="path12"
       style="fill:#ffffff;fill-opacity:1;fill-rule:nonzero;stroke:none" /><g
       id="g14"><g
         clip-path="url(#clipPath18)"
         id="g16"><g
           transform="translate(137.9803,280.4874)"
           id="g22"><path
             d="m 0,0 272.848,0 -0.007,-49.702 -272.847,0 L 0,0 z m 0,37.093 272.848,0 0,-34.05 -272.848,0 0,34.05 z m 0,37.102 110.909,0 c 4.656,1.868 38.056,16.709 44.729,60.524 0.998,6.549 -1.16,13.65 -3.431,16.652 3.69,3.475 6.227,5.037 9.095,13.285 2.463,7.086 1.947,18.268 -4.591,23.408 0,0 5.73,-7.305 1.511,-21.375 -1.786,-5.955 -6.536,-9.962 -10.917,-12.517 l -6.39,-5.465 c 0,0 -2.576,-0.904 -3.78,-8.781 0,0 -2.375,-6.51 0.443,-11.778 0.446,-0.834 3.546,-4.89 1.577,-6.98 -1.093,-1.558 -2.635,-5.784 -6.359,-9.202 -2.05,-1.88 -4.998,-2.724 -8.34,-4.601 -0.682,-0.092 -0.974,-0.092 -1.266,0.642 1.522,2.83 3.989,11.919 1.463,15.765 0,0 -4.171,-0.316 -8.927,-8.799 -1.225,-2.184 -2.025,-6.039 -2.025,-6.039 l -1.397,-1.111 c 0,0 -8.387,5.766 -13.465,8.426 l 0.222,7.941 -3.701,6.775 c 0,0 3.336,9.463 4.081,16.084 2.207,8.298 5.775,32.273 5.775,32.273 l -3.74,9.994 17.838,18.173 c 0,0 -14.204,1.218 -38.554,-2.029 0,0 13.595,12.683 50.628,18.77 -9.832,5.874 -34.329,12.508 -34.329,12.508 37.309,6.219 65.364,-5.577 65.364,-5.577 1.484,1.69 -18.725,19.184 -18.725,19.184 31.1,-5.065 47.028,-22.544 47.028,-22.544 1.099,8.215 -4.275,20.597 -4.275,20.597 21.547,-12.736 25.441,-34.107 25.441,-34.107 3.326,4.961 3.181,20.488 3.181,20.488 3.628,-3.873 7.511,-8.585 10.251,-19.419 1.926,-7.617 2.142,-20.809 2.142,-20.809 4.181,4.474 7.748,16.73 7.748,16.73 3.149,-5.636 5.196,-13.287 4.554,-24.948 -0.357,-6.472 -3.205,-16.744 -3.205,-16.744 4.491,2.387 10.105,13.399 10.105,13.399 3.908,-23.974 -5.704,-42.829 -5.704,-42.829 4.839,1.462 11.914,14.324 11.914,14.324 1.194,-29.298 -11.743,-47.502 -11.743,-47.502 5.935,3.455 12.004,13.534 12.004,13.534 -0.181,-17.29 -5.008,-32.182 -8.261,-40.492 l -27.685,0 c 11.041,32.533 7.352,89.606 -22.642,115.772 -1.926,1.68 41.237,-50.633 13.467,-121.6 l 64.83,0 0,-34.05 -272.848,0 0,34.05 z M 122.615,176.21 c 5.623,9.255 5.829,10.45 3.765,11.909 -0.788,0.557 -1.903,-0.961 -5.225,-3.897 -2.703,-2.389 -3.985,-3.567 -6.203,-6.154 4.03,-3.849 6.506,-3.762 7.663,-1.858 m -18.077,-47.532 c 0.016,-0.474 0.098,-0.954 0.252,-1.427 0.865,-2.665 3.684,-4.148 6.304,-3.296 2.619,0.852 4.027,3.708 3.161,6.373 -0.596,1.836 -2.121,3.111 -3.868,3.447 0.514,-0.789 1.022,-1.576 1.324,-2.506 0.803,-2.473 -0.157,-4.951 -2.077,-5.575 -1.852,-0.602 -3.994,0.716 -4.866,3.03 l -0.23,-0.046 z"
             id="path24"
             style="fill:#231f20;fill-opacity:1;fill-rule:nonzero;stroke:none" /></g></g></g><g
       id="g26"><g
         clip-path="url(#clipPath30)"
         id="g28"><g
           transform="translate(289.3062,341.5574)"
           id="g34"><path
             d="m 0,0 c 0.073,0.194 0.109,0.37 0.109,0.528 0,0.849 -0.813,1.309 -2.438,1.383 l -0.965,0 -4.15,-11.775 1.93,0 c 0.473,0.048 0.897,0.181 1.273,0.4 0.911,0.546 1.53,1.498 1.857,2.857 L 0,0 z M 7.371,-2.512 5.988,-6.297 c -1.117,-3.07 -3.331,-5.248 -6.643,-6.534 -1.371,-0.534 -2.912,-0.868 -4.623,-1.001 l -11.884,0 5.915,16.489 -4.841,3.222 14.177,0 C -0.018,5.769 1.608,5.496 2.967,5.059 6.206,4.04 7.826,2.311 7.826,-0.128 c 0,-0.74 -0.152,-1.534 -0.455,-2.384"
             id="path36"
             style="fill:#ffffff;fill-opacity:1;fill-rule:evenodd;stroke:none" /></g><g
           transform="translate(312.7777,340.5747)"
           id="g38"><path
             d="m 0,0 -5.223,-8.172 4.786,0 L 0,0 z m 7.935,-12.849 -8.681,0 0.036,2.129 -5.951,0 -1.347,-2.129 -8.572,0 11.139,16.507 -4.878,3.204 17.672,0 0.582,-19.711 z"
             id="path40"
             style="fill:#ffffff;fill-opacity:1;fill-rule:evenodd;stroke:none" /></g><g
           transform="translate(342.9676,341.2117)"
           id="g42"><path
             d="m 0,0 c 0,0.437 -0.158,0.795 -0.473,1.074 -0.304,0.278 -0.801,0.418 -1.492,0.418 l -2.039,0 -1.255,-3.567 2.365,0 c 0.789,0 1.401,0.091 1.839,0.273 0.315,0.146 0.575,0.437 0.782,0.874 C -0.091,-0.564 0,-0.255 0,0 M 7.171,-1.456 C 6.94,-2.597 6.127,-3.743 4.732,-4.896 3.64,-5.746 2.244,-6.315 0.546,-6.607 l 2.712,-6.879 -7.589,0 -2.603,6.679 -2.348,-6.679 -8.317,0 5.915,16.489 -4.841,3.222 16.835,0 C 2.699,6.225 4.683,5.569 6.261,4.259 7.11,3.3 7.534,2.117 7.535,0.71 7.535,0.006 7.413,-0.716 7.171,-1.456"
             id="path44"
             style="fill:#ffffff;fill-opacity:1;fill-rule:evenodd;stroke:none" /></g><g
           transform="translate(380.9654,347.4362)"
           id="g46"><path
             d="m 0,0 -9.446,-10.156 2.512,-9.555 -8.317,0 -2.13,9.319 -3.276,-9.319 -8.317,0 5.915,16.489 L -27.9,0 -13.722,0 -16.507,-7.935 -9.082,0 0,0 z"
             id="path48"
             style="fill:#ffffff;fill-opacity:1;fill-rule:nonzero;stroke:none" /></g><g
           transform="translate(254.7292,265.4471)"
           id="g50"><path
             d="m 0,0 -0.218,-0.655 -8.245,0 1.11,3.185 c 0.061,0.169 0.091,0.333 0.091,0.491 0,0.861 -0.807,1.328 -2.42,1.402 -0.462,-0.049 -0.88,-0.182 -1.256,-0.401 -0.91,-0.546 -1.529,-1.499 -1.856,-2.857 l -2.785,-8.008 c -0.061,-0.182 -0.091,-0.352 -0.091,-0.51 0,-0.849 0.806,-1.31 2.42,-1.383 0.461,0.036 0.88,0.17 1.256,0.401 0.91,0.545 1.529,1.492 1.857,2.839 l 0.618,1.783 8.263,0 -0.51,-1.474 c -1.055,-3.082 -3.245,-5.26 -6.569,-6.534 -1.396,-0.533 -2.961,-0.861 -4.696,-0.982 -2.002,0.06 -3.726,0.297 -5.169,0.709 -3.446,0.983 -5.168,2.76 -5.169,5.333 0,0.715 0.146,1.498 0.437,2.348 l 1.766,5.168 c 1.055,3.094 3.245,5.278 6.57,6.552 1.395,0.534 2.96,0.861 4.695,0.983 C -7.899,8.317 -6.176,8.081 -4.732,7.68 -1.287,6.685 0.436,4.908 0.437,2.348 0.437,1.62 0.291,0.837 0,0"
             id="path52"
             style="fill:#ffffff;fill-opacity:1;fill-rule:nonzero;stroke:none" /></g><g
           transform="translate(272.9253,267.9769)"
           id="g54"><path
             d="m 0,0 c 0.06,0.169 0.09,0.333 0.091,0.491 0,0.861 -0.807,1.328 -2.421,1.402 C -2.791,1.844 -3.209,1.711 -3.585,1.492 -4.495,0.946 -5.114,-0.006 -5.442,-1.365 l -2.784,-8.008 c -0.061,-0.182 -0.091,-0.352 -0.091,-0.51 0,-0.849 0.806,-1.31 2.42,-1.383 0.461,0.037 0.879,0.17 1.256,0.401 0.91,0.546 1.529,1.492 1.856,2.839 L 0,0 z M 7.353,-2.53 5.587,-7.717 c -1.055,-3.082 -3.245,-5.26 -6.57,-6.534 -1.395,-0.533 -2.961,-0.861 -4.695,-0.982 -2.002,0.061 -3.725,0.297 -5.169,0.71 -3.446,0.982 -5.168,2.76 -5.169,5.332 0,0.716 0.146,1.498 0.437,2.348 l 1.765,5.169 c 1.056,3.093 3.246,5.277 6.571,6.552 1.395,0.533 2.96,0.861 4.695,0.982 C -0.546,5.799 1.177,5.563 2.621,5.15 6.066,4.155 7.789,2.378 7.789,-0.182 7.789,-0.91 7.644,-1.692 7.353,-2.53"
             id="path56"
             style="fill:#ffffff;fill-opacity:1;fill-rule:evenodd;stroke:none" /></g><g
           transform="translate(302.06,253.9453)"
           id="g58"><path
             d="M 0,0 3.295,9.17 2.563,9.54 -3.858,0 l -5.317,0 0,9.32 -0.789,0.135 -3.325,-9.455 -7.386,0 5.821,16.245 -3.916,2.591 14.986,0 0.464,-8.537 6.054,8.537 11.278,0 L 7.368,0 0,0 z"
             id="path60"
             style="fill:#ffffff;fill-opacity:1;fill-rule:nonzero;stroke:none" /></g><g
           transform="translate(324.9943,253.7267)"
           id="g62"><path
             d="m 0,0 -7.852,0 5.868,16.358 -4.381,2.915 13.145,0 L 0,0 z"
             id="path64"
             style="fill:#ffffff;fill-opacity:1;fill-rule:nonzero;stroke:none" /></g><g
           transform="translate(355.0103,265.4471)"
           id="g66"><path
             d="m 0,0 -0.218,-0.655 -8.245,0 1.11,3.185 c 0.06,0.169 0.091,0.333 0.091,0.491 0,0.861 -0.807,1.328 -2.42,1.402 -0.462,-0.049 -0.88,-0.182 -1.256,-0.401 -0.91,-0.546 -1.529,-1.499 -1.856,-2.857 l -2.785,-8.008 c -0.061,-0.182 -0.091,-0.352 -0.091,-0.51 0,-0.849 0.807,-1.31 2.421,-1.383 0.46,0.036 0.879,0.17 1.256,0.401 0.909,0.545 1.528,1.492 1.856,2.839 l 0.619,1.783 8.262,0 -0.509,-1.474 c -1.056,-3.082 -3.246,-5.26 -6.57,-6.534 -1.396,-0.533 -2.961,-0.861 -4.696,-0.982 -2.002,0.06 -3.725,0.297 -5.169,0.709 -3.446,0.983 -5.168,2.76 -5.169,5.333 0,0.715 0.146,1.498 0.437,2.348 l 1.766,5.168 c 1.055,3.094 3.245,5.278 6.57,6.552 1.395,0.534 2.96,0.861 4.695,0.983 C -7.898,8.317 -6.176,8.081 -4.732,7.68 -1.286,6.685 0.436,4.908 0.437,2.348 0.437,1.62 0.291,0.837 0,0"
             id="path68"
             style="fill:#ffffff;fill-opacity:1;fill-rule:nonzero;stroke:none" /></g><g
           transform="translate(380.4064,267.1033)"
           id="g70"><path
             d="m 0,0 -8.063,0 0.383,1.11 c 0.06,0.182 0.09,0.352 0.091,0.51 0,0.849 -0.807,1.31 -2.421,1.383 -0.922,0 -1.487,-0.388 -1.692,-1.165 -0.17,-0.679 0.539,-1.414 2.129,-2.202 2.96,-1.456 4.501,-2.227 4.623,-2.311 1.71,-1.092 2.566,-2.324 2.566,-3.695 0,-0.449 -0.085,-0.916 -0.255,-1.401 -0.68,-2.645 -2.67,-4.496 -5.97,-5.551 -1.371,-0.449 -2.948,-0.716 -4.731,-0.801 -3.92,0 -6.734,0.728 -8.445,2.184 -1.225,1.031 -1.838,2.378 -1.838,4.04 0,0.425 0.042,0.849 0.127,1.274 l 8.154,0 -0.564,-1.638 c -0.061,-0.17 -0.091,-0.334 -0.091,-0.491 0,-0.862 0.806,-1.329 2.42,-1.401 1.067,0 1.88,0.539 2.439,1.619 0.109,0.23 0.163,0.443 0.163,0.637 0,0.704 -0.861,1.419 -2.584,2.148 -2.754,1.177 -4.349,1.898 -4.786,2.166 -1.724,1.055 -2.585,2.316 -2.585,3.785 0,0.546 0.11,1.129 0.328,1.747 0.546,2.087 2.439,3.555 5.678,4.405 1.347,0.339 2.912,0.545 4.696,0.618 3.919,0 6.733,-0.728 8.444,-2.184 C -0.559,3.755 0.054,2.408 0.055,0.746 0.055,0.503 0.037,0.255 0,0"
             id="path72"
             style="fill:#ffffff;fill-opacity:1;fill-rule:nonzero;stroke:none" /></g><g
           transform="translate(279.9128,310.3125)"
           id="g74"><path
             d="m 0,0 -6.934,-19.711 -8.317,0 2.657,7.408 -4.55,0 -2.603,-7.408 -8.317,0 5.915,16.489 -4.841,3.222 14.177,0 -2.657,-7.571 4.568,0 L -8.19,0 0,0 z"
             id="path76"
             style="fill:#ffffff;fill-opacity:1;fill-rule:nonzero;stroke:none" /></g><g
           transform="translate(296.0281,305.071)"
           id="g78"><path
             d="m 0,0 c 0.06,0.169 0.09,0.333 0.091,0.491 0,0.861 -0.807,1.328 -2.421,1.402 C -2.791,1.844 -3.209,1.711 -3.586,1.492 -4.495,0.946 -5.114,-0.006 -5.442,-1.365 l -2.784,-8.008 c -0.061,-0.182 -0.091,-0.352 -0.091,-0.509 0,-0.85 0.806,-1.311 2.42,-1.384 0.461,0.037 0.879,0.17 1.256,0.401 0.91,0.546 1.529,1.492 1.856,2.839 L 0,0 z M 7.353,-2.53 5.587,-7.717 c -1.055,-3.082 -3.246,-5.259 -6.57,-6.533 -1.395,-0.534 -2.961,-0.862 -4.695,-0.983 -2.002,0.061 -3.726,0.297 -5.169,0.71 -3.446,0.982 -5.169,2.76 -5.169,5.332 0,0.716 0.146,1.498 0.437,2.348 l 1.765,5.168 c 1.056,3.094 3.246,5.279 6.57,6.552 1.396,0.534 2.961,0.862 4.696,0.983 C -0.546,5.799 1.177,5.563 2.621,5.15 6.066,4.155 7.789,2.378 7.789,-0.182 7.789,-0.91 7.644,-1.693 7.353,-2.53"
             id="path80"
             style="fill:#ffffff;fill-opacity:1;fill-rule:evenodd;stroke:none" /></g><g
           transform="translate(321.6896,304.0881)"
           id="g82"><path
             d="m 0,0 c 0,0.437 -0.158,0.795 -0.473,1.074 -0.304,0.278 -0.801,0.418 -1.492,0.418 l -2.039,0 -1.256,-3.567 2.366,0 c 0.788,0 1.401,0.091 1.839,0.273 0.314,0.146 0.576,0.437 0.782,0.874 C -0.091,-0.564 0,-0.255 0,0 M 7.171,-1.456 C 6.94,-2.597 6.127,-3.743 4.732,-4.896 3.64,-5.746 2.244,-6.315 0.546,-6.607 l 2.712,-6.879 -7.589,0 -2.603,6.679 -2.348,-6.679 -8.317,0 5.915,16.489 -4.841,3.221 16.834,0 c 2.39,0 4.374,-0.655 5.952,-1.965 C 7.11,3.3 7.534,2.117 7.535,0.71 7.535,0.005 7.413,-0.716 7.171,-1.456"
             id="path84"
             style="fill:#ffffff;fill-opacity:1;fill-rule:evenodd;stroke:none" /></g><g
           transform="translate(354.8033,304.1972)"
           id="g86"><path
             d="m 0,0 -8.063,0 0.383,1.11 c 0.06,0.182 0.09,0.352 0.091,0.51 0,0.849 -0.807,1.31 -2.421,1.383 -0.922,0 -1.486,-0.388 -1.692,-1.165 -0.17,-0.679 0.539,-1.414 2.129,-2.202 2.961,-1.456 4.501,-2.227 4.623,-2.311 1.711,-1.092 2.566,-2.324 2.566,-3.695 0,-0.449 -0.085,-0.916 -0.255,-1.401 -0.68,-2.645 -2.67,-4.495 -5.969,-5.551 -1.371,-0.449 -2.949,-0.716 -4.732,-0.801 -3.919,0 -6.734,0.728 -8.445,2.184 -1.225,1.031 -1.837,2.378 -1.838,4.04 0,0.425 0.043,0.85 0.127,1.274 l 8.154,0 -0.564,-1.638 c -0.061,-0.17 -0.091,-0.334 -0.091,-0.491 0,-0.862 0.806,-1.329 2.42,-1.402 1.068,0 1.881,0.54 2.439,1.62 0.109,0.231 0.164,0.443 0.164,0.637 0,0.704 -0.862,1.419 -2.585,2.148 -2.754,1.177 -4.349,1.898 -4.786,2.166 -1.723,1.055 -2.584,2.317 -2.584,3.785 0,0.546 0.109,1.129 0.327,1.747 0.546,2.087 2.439,3.555 5.678,4.405 1.347,0.339 2.913,0.545 4.696,0.619 3.919,0 6.733,-0.728 8.445,-2.184 C -0.558,3.755 0.054,2.408 0.055,0.746 0.055,0.503 0.037,0.255 0,0"
             id="path88"
             style="fill:#ffffff;fill-opacity:1;fill-rule:nonzero;stroke:none" /></g><g
           transform="translate(380.874,310.3125)"
           id="g90"><path
             d="m 0,0 -1.693,-4.732 -10.082,0 -1.038,-2.949 5.406,0 -1.693,-4.731 -5.387,0 -0.91,-2.567 10.101,0 -1.693,-4.732 -18.381,0 5.915,16.489 L -24.296,0 0,0 z"
             id="path92"
             style="fill:#ffffff;fill-opacity:1;fill-rule:nonzero;stroke:none" /></g><path
           d="m 205.528,542.472 198.953,0 0,-294.362 -198.953,0 0,294.362 z"
           id="path94"
           style="fill:none;stroke:#231f20;stroke-width:3.05599999;stroke-linecap:butt;stroke-linejoin:miter;stroke-miterlimit:3.86400008;stroke-opacity:1;stroke-dasharray:none" /><g
           transform="translate(222.3721,366.0156)"
           id="g96"><path
             d="M 0,0 C 0.184,0 0.358,0.006 0.522,0.019 0.686,0.03 0.832,0.064 0.96,0.121 1.088,0.176 1.19,0.262 1.266,0.379 1.342,0.494 1.38,0.656 1.38,0.865 1.38,1.041 1.346,1.181 1.278,1.285 1.21,1.389 1.122,1.469 1.014,1.524 0.906,1.58 0.782,1.619 0.642,1.639 0.502,1.658 0.364,1.668 0.228,1.668 l -1.08,0 L -0.852,0 0,0 z m 0.36,2.328 c 0.624,0 1.086,-0.123 1.386,-0.371 0.3,-0.248 0.45,-0.625 0.45,-1.129 C 2.196,0.356 2.064,0.01 1.8,-0.209 1.536,-0.43 1.208,-0.56 0.816,-0.6 l 1.5,-2.316 -0.876,0 -1.428,2.256 -0.864,0 0,-2.256 -0.816,0 0,5.244 2.028,0 z m -3.702,-4.134 c 0.188,-0.467 0.448,-0.874 0.78,-1.217 0.332,-0.344 0.724,-0.615 1.176,-0.811 0.452,-0.195 0.942,-0.293 1.47,-0.293 0.52,0 1.004,0.098 1.452,0.293 0.448,0.196 0.838,0.467 1.17,0.811 0.332,0.343 0.592,0.75 0.78,1.217 0.188,0.468 0.282,0.978 0.282,1.531 0,0.535 -0.094,1.035 -0.282,1.5 C 3.298,1.688 3.038,2.09 2.706,2.431 2.374,2.771 1.984,3.039 1.536,3.234 1.088,3.431 0.604,3.528 0.084,3.528 -0.444,3.528 -0.934,3.431 -1.386,3.234 -1.838,3.039 -2.23,2.771 -2.562,2.431 -2.894,2.09 -3.154,1.688 -3.342,1.225 -3.53,0.76 -3.624,0.26 -3.624,-0.275 c 0,-0.553 0.094,-1.063 0.282,-1.531 M -4.08,1.488 c 0.24,0.544 0.566,1.016 0.978,1.416 0.412,0.401 0.892,0.715 1.44,0.943 0.548,0.227 1.13,0.341 1.746,0.341 0.616,0 1.196,-0.114 1.74,-0.341 0.544,-0.228 1.02,-0.542 1.428,-0.943 0.408,-0.4 0.732,-0.872 0.972,-1.416 0.24,-0.544 0.36,-1.132 0.36,-1.763 0,-0.649 -0.12,-1.246 -0.36,-1.794 C 3.984,-2.617 3.66,-3.094 3.252,-3.498 2.844,-3.901 2.368,-4.216 1.824,-4.439 1.28,-4.664 0.7,-4.775 0.084,-4.775 c -0.616,0 -1.198,0.111 -1.746,0.336 -0.548,0.223 -1.028,0.538 -1.44,0.941 -0.412,0.404 -0.738,0.881 -0.978,1.429 -0.24,0.548 -0.36,1.145 -0.36,1.794 0,0.631 0.12,1.219 0.36,1.763"
             id="path98"
             style="fill:#231f20;fill-opacity:1;fill-rule:nonzero;stroke:none" /></g></g></g></g></svg>