<?xml version="1.0" encoding="UTF-8" standalone="no"?>
<!-- Created with Inkscape (http://www.inkscape.org/) by Marsupilami -->
<svg
   xmlns:svg="http://www.w3.org/2000/svg"
   xmlns="http://www.w3.org/2000/svg"
   version="1.0"
   width="2224"
   height="2091"
   id="svg2997">
  <defs
     id="defs3000" />
  <g
     style="display:inline"
     id="layer3">
    <g
       transform="matrix(32.256751,1.728591,-1.6956211,33.08331,-2999.2919,-654.02293)"
       style="fill-rule:nonzero;stroke:#000000;stroke-width:0.9984901;stroke-miterlimit:4"
       id="Layer_x0020_1">
      <g
         style="stroke:none"
         id="g7">
        <path
           d="M 117.12842,16.370117 C 114.1665,18.509277 109.57568,22.854492 107.40381,25.360352 C 107.97412,25.407715 108.55029,24.945313 109.18506,24.82959 L 113.54053,23.416992 C 111.78662,25.049805 108.06787,27.960938 107.06201,30.15332 C 108.41553,29.59668 111.22412,27.820313 112.65576,27.611816 C 111.4585,28.802246 108.94873,31.072754 108.19873,32.473633 C 108.30029,32.51416 108.23779,32.636719 108.25732,32.71875 C 109.30615,32.057129 111.84912,30.337402 113.03467,30.167969 C 111.87647,31.521973 109.75147,34.123535 109.34522,35.813477 C 110.37256,35.049805 112.9751,33.473633 114.12451,32.976562 C 113.89209,33.646973 113.32568,34.165527 112.9751,34.842285 C 112.4917,35.77832 111.28857,36.87793 111.29834,37.959473 C 112.18604,37.03125 113.30322,36.193848 114.43311,35.513184 C 113.97217,36.631348 113.06592,37.583496 112.87451,38.895508 C 113.59717,38.10791 115.02197,37.643066 115.98584,37.246094 L 115.87354,37.367187 C 115.79248,37.442383 114.72803,38.293945 114.021,39.21875 C 114.68896,39.141602 114.18506,39.085937 115.05225,39.231445 L 115.03824,39.274471 C 115.24236,44.273236 125.07934,45.590433 131.03578,45.025296 C 132.16957,42.583402 131.28857,38.779785 134.45264,36.959472 C 136.58154,35.709472 136.79639,35.07666 139.34717,35.407714 C 140.7251,35.585937 143.76416,36.436035 145.17725,36.043945 C 146.47217,35.221679 147.10303,34.856445 148.23682,33.890625 C 149.29053,32.137344 138.75121,27.185006 147.41162,33.870117 C 149.42139,34.181152 149.93115,34.092773 150.4751,33.199219 C 150.70202,32.489074 151.23291,30.606445 151.74365,29.371094 L 151.74951,28.717285 C 151.10693,27.112305 151.09521,24.30957 150.79248,23.921875 C 148.82373,21.532715 142.15967,21.490723 138.98193,18.37793 C 139.40869,16.728027 138.26318,15.446777 137.11475,14.489258 C 135.40771,13.395508 133.16553,14.056152 131.43994,14.637695 C 129.42334,14.334961 127.54053,13.73291 125.56885,13.28125 C 121.2251,13.067871 117.12842,16.370117 117.12842,16.370117 L 117.12842,16.370117 z "
           style="fill:#000000;fill-opacity:1"
           id="path9" />
        <path
           d="M 129.86475,17.09082 L 128.46045,17.698242 C 128.271,17.373535 128.68311,17.03418 128.8374,16.713867 C 128.94775,16.479492 129.29248,16.333008 129.36084,16.053711 C 127.49365,15.859375 125.69678,15.06543 123.73779,15.473633 C 121.64307,15.90918 120.45459,16.760254 119.2876,17.762695 C 118.69092,18.122559 118.41943,18.603027 117.84326,19.026367 C 117.14795,19.70459 116.89795,20.99707 116.729,21.25 C 117.76318,20.748535 118.83057,20.759277 119.53662,20.48584 C 116.92139,22.273437 116.61865,25.51416 117.50732,28.157715 L 117.46631,28.21875 C 116.53076,27.737305 116.21631,26.774902 115.92041,25.93457 C 115.771,26.504883 115.78271,27.21875 115.69385,27.851562 C 115.39014,27.602539 115.21045,27.23291 115.03076,26.904785 C 114.87646,29.759277 116.41748,31.99707 118.2749,34.146973 C 119.51904,35.588379 117.29639,36.70166 117.93115,38.55957 L 120.65967,38.26709 C 121.00537,38.120117 120.89795,38.171875 120.89795,38.171875 C 120.28271,39.54541 116.70654,40.748535 116.04932,41.549805 C 116.25244,41.696777 119.39307,40.571777 120.55029,40.317383 L 117.21554,42.389304 C 117.56222,42.474264 117.26904,43.615723 118.01318,43.470215 C 122.83462,44.596641 128.2844,46.224828 129.01318,44.190429 C 129.64209,42.888183 130.55811,40.690429 130.33545,39.484375 L 131.01514,38.354004 C 130.04443,38.643554 129.07373,39.083496 128.35498,39.912597 C 128.10303,39.459472 128.43115,38.882812 128.58545,38.433593 C 129.04834,37.514648 130.04248,36.989258 130.82275,36.439941 L 129.08936,35.796875 C 128.15967,34.411133 126.4751,33.317383 126.34326,31.63916 L 126.75146,31.751465 C 128.38623,33.381347 130.65576,34.654785 132.86084,34.63916 C 131.35693,34.592285 139.06104,33.296875 138.57178,32.680664 C 139.45654,33.792969 141.97217,34.148437 143.82373,34.660156 C 144.64404,34.323242 145.01318,34.387695 145.61182,33.803222 C 145.32959,33.534179 144.90381,33.324219 144.49756,33.198242 C 142.07373,32.679687 136.36963,31.842285 135.03271,29.614258 C 134.85498,30.602539 135.82373,31.359375 136.90381,32.137695 L 134.65771,31.948242 C 130.64209,30.382812 130.95654,27.321777 131.6665,24.390625 L 132.09131,26.784179 L 132.9292,28.057617 C 134.25537,25.402344 133.50732,25.762695 130.38818,22.438476 L 132.646,23.147461 C 133.69873,23.887695 135.43311,25.171875 136.95654,26.046875 C 141.05811,28.373535 143.11084,29.950195 148.16553,30.03125 L 149.73682,30.286133 C 150.68896,27.418945 148.42041,24.936035 149.271,28.82959 C 148.39795,27.898437 147.54639,27.039062 147.68701,26.521972 C 147.37647,26.112304 148.80225,24.973633 148.65088,24.49707 C 147.12061,23.131347 140.79248,22.686035 137.20459,19.561035 C 137.13428,20.118652 138.88818,21.460937 139.20459,21.9375 C 135.81982,22.146972 133.771,21.237304 133.35303,20.186035 C 133.26904,20.011719 133.31982,19.213867 133.66748,18.939941 C 134.14307,18.665527 134.59912,18.262695 135.15869,18.182617 C 134.2417,17.52832 133.17725,18.524902 132.42041,18.989258 C 131.86865,20.034179 132.87061,21.114258 133.03271,21.932129 C 132.19678,21.771972 131.00732,20.412597 130.82373,19.529785 C 129.57568,19.729492 128.41553,19.631347 127.41357,18.975097 C 128.25537,18.748535 129.11865,18.39209 130.00146,18.188476 C 132.30811,17.570312 134.63525,15.104492 137.0874,16.808593 L 135.91943,15.506347 C 133.7085,15.395508 131.84912,16.490722 129.86475,17.09082 L 129.86475,17.09082 z "
           style="fill:#ff1a00"
           id="path11" />
        <path
           d="M 122.2251,18.521973 C 121.63623,19.26709 121.04639,20.012695 120.95068,20.978027 L 121.09912,21.131348 C 121.4917,20.618652 122.09717,20.174805 122.65967,19.859375 C 122.71338,20.868652 123.43311,21.823242 124.35107,22.263184 L 124.50146,22.265625 C 124.25635,21.209473 124.31396,19.899902 124.69092,18.915527 C 125.34229,18.321777 126.22607,18.053223 126.771,17.436035 C 125.31201,17.182617 123.95459,17.532715 122.74561,18.054687 L 122.2251,18.521973 L 122.2251,18.521973 z "
           id="path13" />
        <path
           d="M 136.85693,20.731445 C 136.22217,19.963867 135.34717,19.367188 134.28271,19.51416 C 134.34521,20.499023 135.75342,21.001465 136.85693,20.731445 z "
           style="fill:#ffffff"
           id="path15" />
        <path
           d="M 128.31104,21.305664 C 127.38623,21.42334 126.5249,21.629883 125.66162,21.898438 C 126.06592,22.225098 126.56006,22.316406 126.94287,22.62207 C 125.81982,23.103027 124.63428,23.433594 123.67822,24.34668 L 123.89209,24.456055 C 125.72412,23.983398 127.91553,23.900879 129.86865,24.203125 L 129.97607,24.118652 L 128.75244,22.192383 L 130.45459,21.739258 C 129.49756,20.95459 128.40967,20.19043 127.18896,19.896973 C 127.39795,20.37207 127.9292,20.82959 128.31104,21.306152 L 128.31104,21.305664 L 128.31104,21.305664 z "
           id="path17" />
        <path
           d="M 135.14014,22.943848 C 136.06201,23.061035 137.07275,23.029785 137.93506,22.825195 C 136.45947,22.185059 134.63037,22.421875 133.41943,21.225586 C 133.67041,21.873535 134.19482,22.911133 135.14014,22.943848 z "
           id="path19" />
        <path
           d="M 121.73779,28.707031 C 122.15479,29.807617 121.021,31.234375 122.04053,32.212402 C 122.91162,33.103027 123.95654,33.825195 124.9585,34.459473 L 124.85498,34.114746 C 123.94287,33.179688 123.09522,32.13916 122.63623,30.995117 C 123.6626,31.286133 124.75342,31.707031 125.91357,31.806152 C 124.51709,29.984375 122.04443,28.301758 122.8042,25.668945 C 122.83057,25.239258 123.39307,24.880371 123.22607,24.491211 C 121.92432,25.571777 121.43506,27.092285 121.73779,28.707031 L 121.73779,28.707031 z "
           id="path21" />
        <path
           d="M 139.60107,29.237305 C 139.48584,29.461914 139.54834,29.77832 139.52295,30.04834 C 139.79639,29.893555 139.97998,29.57959 140.25342,29.446777 C 140.16357,29.289063 139.80322,29.307129 139.60107,29.237305 z "
           style="fill:#ffffff"
           id="path23" />
        <path
           d="M 141.33154,30.822754 L 141.87842,30.242188 C 141.74561,30.149902 141.56787,30.013184 141.33936,30.078125 L 141.33154,30.822754 z "
           style="fill:#ffffff"
           id="path25" />
        <path
           d="M 142.72119,31.345215 C 142.85693,31.347656 143.13525,30.713867 143.271,30.71582 L 142.80029,30.476563 C 142.64209,30.475098 142.76807,31.233398 142.72119,31.345215 z "
           style="fill:#ffffff"
           id="path27" />
        <path
           d="M 144.13916,31.551758 L 144.01123,31.911133 C 144.32764,31.869629 144.4585,31.262695 144.64014,31.084473 C 144.10693,31.009277 144.07959,30.868164 144.13916,31.551758 z "
           style="fill:#ffffff"
           id="path29" />
        <path
           d="M 145.68701,32.28418 L 146.20557,31.303223 L 145.67041,31.212402 L 145.68701,32.28418 z "
           style="fill:#ffffff"
           id="path31" />
        <path
           d="M 147.13037,32.043945 L 147.75635,31.524414 C 147.0874,31.307617 147.04541,31.21582 147.13037,32.043945 z "
           style="fill:#ffffff"
           id="path33" />
        <path
           d="M 148.68115,31.57666 C 148.7915,31.848633 148.72021,32.186035 148.71631,32.479004 C 148.85498,32.1875 149.19678,31.966309 149.22217,31.62793 C 149.06592,31.513184 148.86182,31.579102 148.68115,31.57666 L 148.68115,31.57666 z "
           style="fill:#ffffff"
           id="path35" />
        <path
           d="M 129.67041,43.213867 C 129.89795,43.584473 129.93213,44.04834 130.15967,44.418945 C 130.59717,43.359375 130.47607,42.120117 129.78857,41.223633 C 128.65381,40.804688 127.55615,40.365723 126.56006,39.658691 C 127.02686,40.959473 128.40381,42.348633 129.67041,43.213867 L 129.67041,43.213867 z "
           id="path37" />
        <path
           d="M 135.34717,20.92334 C 134.97998,20.850586 134.74756,20.46582 134.82568,20.0625 C 134.90576,19.657715 135.26709,19.389648 135.63428,19.462402 C 136.00146,19.53418 136.23389,19.92041 136.15576,20.323242 C 136.07568,20.726562 135.71338,20.995117 135.34717,20.92334 z "
           id="path71" />
        <path
           d="M 129.41318,45.877584 L 130.44482,44.966309 C 129.36279,44.35791 127.52762,43.261263 126.52273,42.429232 C 127.35574,43.916536 127.46772,45.604934 129.41318,45.877584 z "
           id="path75" />
        <path
           d="M 31.534668,219.2998 C 32.167969,220.06738 33.043945,220.66406 34.109375,220.5166 C 34.04541,219.53125 32.637695,219.03027 31.534668,219.2998 z "
           style="fill:#ffffff"
           id="path85" />
        <path
           d="M 28.791016,210.79395 C 28.905762,210.56934 28.842285,210.25293 28.867188,209.9834 C 28.595703,210.1377 28.411133,210.45215 28.137695,210.58496 C 28.226563,210.74219 28.587891,210.72363 28.791016,210.79395 z "
           style="fill:#ffffff"
           id="path93" />
        <path
           d="M 27.05957,209.20996 L 26.511719,209.78906 C 26.645508,209.88184 26.82373,210.01855 27.050781,209.95313 L 27.05957,209.20996 z "
           style="fill:#ffffff"
           id="path95" />
        <path
           d="M 25.669922,208.68652 C 25.534668,208.68262 25.256348,209.31738 25.120606,209.31543 L 25.59082,209.55469 C 25.748535,209.55566 25.623047,208.79688 25.669922,208.68652 L 25.669922,208.68652 z "
           style="fill:#ffffff"
           id="path97" />
        <path
           d="M 24.251953,208.47949 L 24.379883,208.12012 C 24.064453,208.16113 23.933106,208.76855 23.75,208.94629 C 24.284668,209.02246 24.312012,209.16309 24.251953,208.47949 z "
           style="fill:#ffffff"
           id="path99" />
        <path
           d="M 22.705078,207.74707 L 22.186035,208.72754 L 22.720703,208.81934 L 22.705078,207.74707 L 22.705078,207.74707 z "
           style="fill:#ffffff"
           id="path101" />
        <path
           d="M 21.260254,207.9873 L 20.634766,208.50781 C 21.303223,208.72363 21.345703,208.81543 21.260254,207.9873 z "
           style="fill:#ffffff"
           id="path103" />
        <path
           d="M 19.709473,208.4541 C 19.599609,208.18262 19.671875,207.84473 19.674316,207.55176 C 19.536133,207.84375 19.194824,208.06543 19.168945,208.40332 C 19.325195,208.5166 19.529297,208.45215 19.709473,208.4541 L 19.709473,208.4541 z "
           style="fill:#ffffff"
           id="path105" />
      </g>
    </g>
    <path
       d="M 600,861 C 741.874,1047.3612 934.81628,1121.2638 1170,1101 L 1150,1057.5 C 940.82313,1065.2531 766.69019,1013.3896 648,841.5 L 600,861 z "
       style="fill:#000000;fill-opacity:1;fill-rule:evenodd;stroke:none;stroke-width:1px;stroke-linecap:butt;stroke-linejoin:miter;stroke-opacity:1;display:inline"
       id="path2225" />
    <path
       d="M 13,1909.0987 C 48.660182,1909.4275 84.34309,1908.6119 120,1909.2557 L 115.39148,1937.4179 L 52.808068,1937.6495 L 52.543928,1977.4406 L 102.75832,1977.4406 L 102.75832,2006.2161 L 52.55454,2006.2161 L 52.55454,2084 L 13,2084 L 13,1909.0987 z "
       style="fill:#000000;fill-opacity:1;display:inline"
       id="path2343" />
    <path
       d="M 265.8167,2083.0763 C 238.28297,2078.9105 218.48831,2063.5761 207.48007,2037.8844 C 201.20523,2023.2399 199.41877,2012.0108 200.1558,1991.8458 C 200.9027,1971.4106 203.27909,1961.7372 211.03264,1947.5709 C 221.03966,1929.2873 234.1415,1918.7923 254.69431,1912.5964 C 265.469,1909.3483 267.77683,1909.0515 282.6282,1909.003 C 296.08463,1908.959 300.39344,1909.3788 308.15675,1911.4896 C 336.43968,1919.1796 354.85243,1938.1483 362.50813,1967.4822 C 366.04822,1981.0464 365.76387,2013.6792 361.98957,2026.9962 C 353.42264,2057.2231 332.69337,2077.2987 304.58409,2082.5913 C 295.84233,2084.2372 275.1965,2084.4955 265.8167,2083.0763 z M 294.58401,2055.2511 C 305.96046,2051.8144 313.97323,2041.2988 317.63218,2025.0037 C 320.13922,2013.8385 320.55424,1980.8619 318.33481,1969.1725 C 314.22571,1947.5306 302.02766,1936.5744 282.02051,1936.5555 C 262.50324,1936.537 251.85374,1946.299 246.25996,1969.3357 C 243.62535,1980.1859 243.33464,2011.5529 245.75942,2023.3443 C 249.18623,2040.0084 256.53014,2050.4801 267.39069,2054.1883 C 274.81892,2056.7245 288.00108,2057.2396 294.58401,2055.2511 z "
       style="fill:#000000;fill-opacity:1;stroke-opacity:1;display:inline"
       id="path3315" />
    <path
       d="M 630.41406,1914.6192 L 632.66992,1914.6192 L 632.66992,1919.8633 C 632.66992,1920.586 632.78711,1921.1036 633.02148,1921.4161 C 633.25976,1921.7247 633.64648,1921.9691 634.18164,1921.9691 C 634.7207,1921.9691 635.10742,1921.7247 635.3418,1921.4161 C 635.58007,1921.1036 635.69921,1920.586 635.69922,1919.8633 L 635.69922,1914.6192 L 637.95508,1914.6192 L 637.95508,1919.8633 C 637.95507,1921.1016 637.64452,1922.0235 637.02344,1922.629 C 636.40234,1923.2344 635.45507,1923.5372 634.18164,1923.5372 C 632.91211,1923.5372 631.96679,1923.2344 631.3457,1922.629 C 630.72461,1922.0235 630.41406,1921.1016 630.41406,1919.8633 L 630.41406,1914.6192"
       transform="matrix(18.757883,0,0,19.623284,-11351.687,-35662.115)"
       style="fill:#000000;fill-opacity:1;display:inline"
       id="flowRoot5258" />
    <path
       d="M 732,1909 L 775.08717,1909.6152 C 792.04217,1943.9192 810.69122,1977.5506 825.17104,2012.8916 L 827.58878,2019.0995 L 826.99639,2006.6838 L 824.78549,1909.0508 L 861,1909.0508 L 861,2084 L 821.92576,2084 L 817.45835,2074.6882 C 803.33338,2045.2472 779.01809,1993.2849 773.22434,1980.1593 C 769.525,1971.7786 766.79201,1966.1915 767.1509,1967.7435 C 767.50979,1969.2954 768.16664,1996.088 768.61077,2027.2826 L 769.41801,2084 L 732,2084 L 732,1909 z "
       style="fill:#000000;fill-opacity:1;stroke:none;stroke-opacity:1;display:inline"
       id="path6262" />
    <path
       d="M 1024.1956,2058.0683 L 1035.6213,2058.0996 C 1047.7401,2058.0996 1058.2594,2044.8745 1064.6791,2035.4574 C 1071.0988,2026.0405 1076.6836,2012.438 1076.6837,1994.6502 C 1076.6836,1977.1615 1071.3935,1964.0077 1065.5635,1955.1884 C 1059.7988,1946.2946 1051.1845,1937.7146 1039.7208,1937.7145 L 1024.1956,1937.6851 L 1024.1956,2058.0996 M 980.9608,2084 L 980.9608,1909 L 1032.6461,1909 C 1047.0575,1909.0003 1058.6851,1910.2708 1067.5287,1912.8117 C 1076.3721,1915.2782 1084.2002,1919.3141 1091.0131,1924.9193 C 1100.8391,1932.9165 1108.1103,1942.782 1112.8271,1954.5158 C 1117.6089,1966.1751 1119.9999,1980.1138 1120.0001,1996.3318 C 1119.9999,2011.3543 1117.5434,2024.9194 1112.6306,2037.027 C 1107.7173,2049.1346 1100.5771,2059.2989 1091.2096,2067.5202 C 1084.5278,2073.3498 1077.0271,2077.5725 1068.7078,2080.1884 C 1060.3883,2082.7295 1049.5796,2084 1036.2817,2084 L 980.9608,2084"
       style="fill:#000000;fill-opacity:1;stroke:none;stroke-opacity:1;display:inline"
       id="text8203" />
    <path
       d="M 1195,2083.6948 L 1257.5302,1909 L 1299.9856,1909 C 1319.8535,1967.2702 1340.2907,2025.3794 1360,2083.6948 L 1317.5193,2083.9699 L 1304.21,2042.3419 L 1249.7822,2042.3481 L 1236.4728,2083.9761 C 1222.6529,2083.8308 1208.8088,2084.2671 1195,2083.6948 z M 1277.8334,1953.0854 L 1259.2773,2013.0854 L 1294.5611,2013.0854 C 1287.2902,1993.506 1284.2131,1972.8653 1277.8334,1953.0854 z "
       style="fill:#000000;fill-opacity:1;stroke:none;stroke-opacity:1;display:inline"
       id="path9182" />
    <path
       d="M 1460.4935,1939.4871 L 1413,1939.4871 L 1413,1909.0038 C 1459.6667,1909.0203 1506.3333,1908.9781 1553,1909.0172 C 1552.9978,1909.0197 1546.5093,1939.4491 1546.5202,1939.4637 L 1500.4881,1939.4871 L 1500.4881,2084 L 1460.4935,2084 L 1460.4935,1939.4871 z "
       style="fill:#000000;fill-opacity:1;stroke:none;stroke-opacity:1;display:inline"
       id="path10154" />
    <path
       d="M 1637.3696,1909 L 1680,1909 L 1680,2083.8924 L 1637.3696,2083.8924 L 1637.3696,1909 z "
       style="fill:#000000;fill-opacity:1;stroke:none;stroke-opacity:1;display:inline"
       id="path11126" />
    <path
       d="M 1853.8167,2083.0763 C 1826.283,2078.9105 1806.4883,2063.5761 1795.4801,2037.8844 C 1789.2052,2023.2399 1787.4188,2012.0108 1788.1558,1991.8458 C 1788.9027,1971.4106 1791.2791,1961.7372 1799.0326,1947.5709 C 1809.0397,1929.2873 1822.1415,1918.7923 1842.6943,1912.5964 C 1853.469,1909.3483 1855.7768,1909.0515 1870.6282,1909.003 C 1884.0846,1908.959 1888.3934,1909.3788 1896.1567,1911.4896 C 1924.4397,1919.1796 1942.8524,1938.1483 1950.5081,1967.4822 C 1954.0482,1981.0464 1953.7639,2013.6792 1949.9896,2026.9962 C 1941.4226,2057.2231 1920.6934,2077.2987 1892.5841,2082.5913 C 1883.8423,2084.2372 1863.1965,2084.4955 1853.8167,2083.0763 z M 1882.584,2055.2511 C 1893.9605,2051.8144 1901.9732,2041.2988 1905.6322,2025.0037 C 1908.1392,2013.8385 1908.5542,1980.8619 1906.3348,1969.1725 C 1902.2257,1947.5306 1890.0277,1936.5744 1870.0205,1936.5555 C 1850.5032,1936.537 1839.8537,1946.299 1834.26,1969.3357 C 1831.6254,1980.1859 1831.3346,2011.5529 1833.7594,2023.3443 C 1837.1862,2040.0084 1844.5301,2050.4801 1855.3907,2054.1883 C 1862.8189,2056.7245 1876.0011,2057.2396 1882.584,2055.2511 z "
       style="fill:#000000;fill-opacity:1;stroke:none;stroke-opacity:1;display:inline"
       id="path14040" />
    <path
       d="M 2059,1909 L 2102.7552,1909.6152 C 2119.973,1943.9192 2138.9113,1977.5506 2153.6156,2012.8916 L 2156.0708,2019.0995 L 2155.4692,2006.6838 L 2153.2241,1909.0508 L 2190,1909.0508 L 2190,2084 L 2150.32,2084 L 2145.7833,2074.6882 C 2131.4393,2045.2472 2106.7471,1993.2849 2100.8635,1980.1593 C 2097.1068,1971.7786 2094.3314,1966.1915 2094.6959,1967.7435 C 2095.0604,1969.2954 2095.7274,1996.088 2096.1784,2027.2826 L 2096.9982,2084 L 2059,2084 L 2059,1909 z "
       style="fill:#000000;fill-opacity:1;stroke:none;stroke-opacity:1;display:inline"
       id="path2224" />
    <g
       transform="translate(-0.4495808,1251.722)"
       style="display:inline"
       id="g3173">
      <path
         d="M 2160.995,565.22475 C 2142.2303,554.80048 2130.3223,544.76194 2121.8089,532.19059 L 2116.8589,524.88117 L 2109.6794,531.22889 C 2099.6324,540.11201 2095.6633,543.06621 2086.5,548.48139 C 2065.3006,561.00948 2036.8488,566.16192 2001.5,563.87434 C 1928.3848,559.14272 1889.9772,524.08606 1884.9577,457.5 C 1882.7241,427.86966 1887.6858,400.91466 1899.1755,380.26072 C 1914.9168,351.964 1945.7254,332.18786 1989.0012,322.60126 C 2011.1351,317.69808 2029.0884,315.91101 2062.3986,315.29528 L 2093.2971,314.72413 L 2092.6801,298.61206 C 2092.3408,289.75043 2091.5864,279.67102 2091.0038,276.21339 C 2087.9483,258.07985 2080.3048,248.90139 2066,246.18836 C 2054.9319,244.08921 2049.8065,243.97241 2037.0683,245.52907 C 2012.4229,248.54083 1986.732,258.62962 1955.0471,277.7387 C 1946.5481,282.86447 1939.1137,286.87388 1938.5264,286.6485 C 1937.3359,286.19166 1895.9817,216.87613 1896.0316,215.42121 C 1896.1018,213.37598 1921.7426,199.24778 1940,191.19446 C 1989.4327,169.3897 2020.3743,162 2062.2407,162 C 2101.171,162 2128.0641,168.55423 2149.7771,183.33387 C 2158.289,189.12778 2171.1069,202.36675 2175.767,210.17749 C 2180.0504,217.35692 2185.3086,230.40372 2188.1892,241 L 2190.5,249.5 L 2190,308 C 2189.725,340.175 2189.5,386.975 2189.5,412 C 2189.5,463.30864 2189.5024,463.32905 2197.2674,478.5 C 2200.6356,485.08069 2203.3938,488.50022 2212.814,497.77434 C 2223.3325,508.1297 2224.1423,509.18933 2222.7496,510.77434 C 2221.9156,511.72345 2210.1,525.325 2196.4929,541 C 2182.8857,556.675 2171.2457,569.60114 2170.6263,569.72475 C 2170.0068,569.84836 2165.6728,567.82336 2160.995,565.22475 z M 2044.6725,487.98184 C 2059.7556,486.09057 2072.2601,480.12762 2083.7379,469.35297 L 2089.9729,463.5 L 2090.6412,424.59003 L 2091.3095,385.68005 L 2075.123,386.37206 C 2024.1123,388.55289 2005.0392,396.71646 1996.8,419.89536 C 1994.2037,427.19971 1993.1951,446.43753 1995.006,454.11649 C 1999.1156,471.54289 2012.9018,485.22975 2029,487.86564 C 2032.025,488.36094 2034.9618,488.8188 2035.5262,488.8831 C 2036.0907,488.94739 2040.2065,488.54183 2044.6725,487.98184 z M 1574.5354,558.41325 C 1558.3484,555.89792 1544.3341,550.06264 1531.5299,540.50664 C 1517.9063,530.33909 1509.8982,518.36089 1504.0364,499.38245 C 1498.5694,481.68243 1498.7049,486.78673 1498.0135,272.5 C 1497.3859,77.976764 1497.3351,74.054847 1495.1219,49.148731 C 1493.8829,35.205533 1493.1287,23.538009 1493.4458,23.220899 C 1494.358,22.308691 1592.3778,-0.015634462 1593.5758,0.41596168 C 1594.7863,0.85205175 1596.6252,14.33382 1598.0204,33 C 1600.0153,165.65459 1598.1636,298.34137 1599.9457,431 C 1600.713,463.15511 1600.9897,467.05842 1602.8828,472.4266 C 1607.5495,485.65998 1613.974,490.45221 1627,490.41617 C 1631.125,490.40475 1635.136,490.19395 1635.9134,489.94771 C 1637.2316,489.53017 1641.8114,503.84776 1652.7588,542.61067 L 1654.767,549.72134 L 1639.1335,553.82498 C 1616.42,559.78705 1593.742,561.39782 1574.5354,558.41325 z M 1782.5,559.34412 C 1769.3984,557.78848 1758.1402,554.53437 1747.5,549.22762 C 1720.9034,535.96265 1707.9721,516.90736 1701.8782,482 C 1701.0734,477.39029 1700.5526,418.2096 1700.0871,278.5 C 1699.4331,82.222219 1699.4219,81.39452 1697.0371,52.728291 C 1695.5745,35.148677 1695.0045,23.639598 1695.5717,23.141704 C 1696.8008,22.062761 1795.0202,-0.31308824 1795.6709,0.33760762 C 1796.7477,1.4144151 1798.9565,21.354969 1799.9535,39 C 1802.5604,175.64545 1799.5054,312.35223 1801.9404,449 C 1802.6163,463.48557 1803.2504,468.77042 1804.8629,473.35456 C 1807.5685,481.04664 1811.3232,485.81306 1816.4706,488.09001 C 1822.0981,490.57935 1830.9932,491.54664 1835.0981,490.11565 C 1837.2292,489.37274 1838.5806,489.32143 1838.9804,489.96825 C 1839.9449,491.52891 1856.2111,549.12219 1855.8027,549.5306 C 1855.6018,549.73156 1849.6014,551.53572 1842.4687,553.53984 C 1825.3032,558.36289 1797.1694,561.08592 1782.5,559.34412 z M 715.5,558.44401 C 713.85,558.22101 708,557.51784 702.5,556.88142 C 697,556.24501 687.29332,554.24306 680.9296,552.43264 C 612.54995,532.97932 569.8282,476.51192 559.92878,392.5 C 558.41175,379.62568 558.4199,343.53388 559.94288,330 C 564.3838,290.53615 577.14121,254.83819 596.75209,227 C 610.05132,208.12138 631.88872,189.07917 651.54854,179.21753 C 676.37691,166.76326 697.96994,162.01066 729.75658,162.00402 C 756.16295,161.99851 773.18192,164.69284 793.07754,172.02859 C 841.35912,189.83057 880.35777,233.47945 894.46002,285.5 C 905.77174,327.22679 905.56975,391.6535 893.99601,433.5 C 884.85631,466.54591 869.13228,493.20535 845.2899,516.07921 C 821.44722,538.95336 795.10838,551.9144 763,556.57314 C 753.54929,557.94438 721.22357,559.21759 715.5,558.44401 z M 753.4941,480.93001 C 775.7865,470.82215 786.56908,448.13939 791.50282,400.97303 C 793.38607,382.96925 793.66535,338.20391 792.00175,321 C 787.39464,273.35596 775.60498,250.41271 750.78122,240.78284 C 737.82539,235.75688 720.01335,237.05605 706.85086,243.98701 C 684.45414,255.78042 674.33147,280.71717 670.92042,332.5 C 668.97516,362.03079 670.76522,401.67129 675.12005,425.5 C 680.95972,457.45337 690.16752,471.80253 710.24549,480.2384 C 719.66416,484.1957 724.56923,484.98465 736.56584,484.47184 C 745.14465,484.10514 747.64547,483.5819 753.4941,480.93001 z M 11.016892,226.48877 C 9.4199662,213.42385 6.3991697,201.55626 2.8198543,194.28564 C 1.0112164,190.61177 0.068339693,187.57946 0.59203101,187.12091 C 1.6909825,186.15866 86.818379,163 89.256511,163 C 91.757467,163 97.497374,175.0405 100.49331,186.57123 C 101.87199,191.87748 103,197.06969 103,198.10948 C 103,199.14926 103.3375,199.99008 103.75,199.97796 C 104.1625,199.96583 108.55,196.56906 113.5,192.42958 C 132.1563,176.82808 156.87498,166.31156 180.61669,163.8749 C 206.58932,161.20927 229.98774,165.09252 248.7863,175.18846 C 260.82003,181.65129 275.14462,193.73561 282.77432,203.86099 L 288.77085,211.81899 L 292.63543,207.80069 C 301.96946,198.09536 320.34658,184.22173 333.25023,177.13893 C 344.28401,171.08251 359.9077,166.1693 375.1602,163.95943 C 388.846,161.97655 415.83871,163.18792 429,166.37562 C 443.55498,169.90088 456.0691,175.20622 465.49065,181.84577 C 484.82443,195.47066 492.16776,207.42185 497.22921,233.5 C 499.34167,244.38402 499.36794,246.11577 499.721,397.75 L 500.07782,551 L 402,551 L 402,416.72377 C 402,330.39936 401.63077,279.42144 400.96607,273.97377 C 398.53542,254.05285 393.92312,248.23986 378.87871,246.13652 C 361.33674,243.68401 336.64587,253.17437 314.19193,271 L 306.00425,277.5 L 306,551 L 211.07436,551 C 205.26364,460.344 219.07833,361.41311 208.78688,271.88607 C 205.15513,254.30595 198.87815,247.88323 183.5,246.01206 C 165.54179,243.82697 141.09982,252.12621 120.21625,267.5 L 112.06593,273.5 L 112,551 L 14,551 C 10.614591,443.669 20.058224,333.29248 11.016892,226.48877 z M 947.12306,487.5 L 1124.6977,242.5 L 962,241.98831 L 962,171 L 1245,171 L 1244.9963,239.5 C 1189.6916,319.76441 1132.8883,399.00443 1078,479.55616 L 1252.1348,480 L 1251.4255,482.25 L 1228.2309,550.5 L 947,551.00692 L 947.12306,487.5 z M 1318,176.0381 L 1320.25,175.52423 C 1352.0426,170.2553 1383.9342,165.60215 1415.75,160.47626 L 1419,159.90937 L 1419,551 L 1318,551 L 1318,176.0381 z M 1361.5,125.85811 C 1337.3856,123.45213 1316.2844,105.25217 1310.0608,81.491343 C 1301.4204,48.503285 1318.7591,15.666577 1350.2677,5.3459461 C 1356.2188,3.3966458 1359.5232,3 1369.811,3 C 1389.1958,3 1400.3051,7.3740913 1412.8942,19.963141 C 1424.9942,32.063136 1430.2492,45.359095 1430.2993,64 C 1430.3507,83.184626 1425.3295,95.7204 1412.4045,108.67559 C 1399.0238,122.08753 1381.8407,127.88757 1361.5,125.85811 z "
         style="fill:#000000;fill-opacity:1;stroke:none;stroke-opacity:1"
         id="path2320" />
    </g>
  </g>
</svg>
