<?xml version="1.0" encoding="UTF-8" standalone="no"?>
<!-- Created with Inkscape (http://www.inkscape.org/) -->

<svg
   xmlns:dc="http://purl.org/dc/elements/1.1/"
   xmlns:cc="http://creativecommons.org/ns#"
   xmlns:rdf="http://www.w3.org/1999/02/22-rdf-syntax-ns#"
   xmlns:svg="http://www.w3.org/2000/svg"
   xmlns="http://www.w3.org/2000/svg"
   xmlns:sodipodi="http://sodipodi.sourceforge.net/DTD/sodipodi-0.dtd"
   xmlns:inkscape="http://www.inkscape.org/namespaces/inkscape"
   width="300"
   height="70"
   id="svg2"
   version="1.1"
   inkscape:version="0.48.5 r10040"
   sodipodi:docname="bofh.svg">
  <defs
     id="defs4" />
  <sodipodi:namedview
     id="base"
     pagecolor="#0b0b0b"
     bordercolor="#666666"
     borderopacity="1.0"
     inkscape:pageopacity="1"
     inkscape:pageshadow="2"
     inkscape:zoom="1.979899"
     inkscape:cx="122.18285"
     inkscape:cy="38.591723"
     inkscape:document-units="px"
     inkscape:current-layer="layer1"
     showgrid="false"
     fit-margin-top="10"
     fit-margin-left="10"
     fit-margin-right="10"
     fit-margin-bottom="10"
     inkscape:window-width="1366"
     inkscape:window-height="721"
     inkscape:window-x="-2"
     inkscape:window-y="-3"
     inkscape:window-maximized="1" />
  <metadata
     id="metadata7">
    <rdf:RDF>
      <cc:Work
         rdf:about="">
        <dc:format>image/svg+xml</dc:format>
        <dc:type
           rdf:resource="http://purl.org/dc/dcmitype/StillImage" />
        <dc:title></dc:title>
      </cc:Work>
    </rdf:RDF>
  </metadata>
  <g
     inkscape:label="Layer 1"
     inkscape:groupmode="layer"
     id="layer1"
     transform="translate(245.04699,-329.43383)">
    <rect
       style="fill:#0a0a0a;fill-opacity:1;stroke:none"
       id="rect4036"
       width="300"
       height="70"
       x="-245.047"
       y="329.43384" />
    <g
       id="g4026"
       transform="matrix(1.6470625,0,0,1.6470625,152.09011,-251.94672)">
      <path
         d="m -180.047,384.36997 0,-10 -10,0 0,10 10,0 m 0,-15 0,-5 -10,0 0,5 10,0 m -20,20 0,-30 25,0 0,5 5,0 0,5 -5,0 0,5 5,0 0,10 -5,0 0,5 -25,0"
         style="font-size:40px;font-style:normal;font-variant:normal;font-weight:normal;font-stretch:normal;line-height:125%;letter-spacing:0px;word-spacing:0px;fill:#00d619;fill-opacity:1;stroke:none;font-family:Early GameBoy;-inkscape-font-specification:Early GameBoy"
         id="path2996"
         inkscape:connector-curvature="0" />
      <path
         d="m -145.04713,384.36997 0,-20 -10,0 0,20 10,0 m -15,5 0,-5 -5,0 0,-20 5,0 0,-5 20,0 0,5 4.99999,0 0,20 -4.99999,0 0,5 -20,0"
         style="font-size:40px;font-style:normal;font-variant:normal;font-weight:normal;font-stretch:normal;line-height:125%;letter-spacing:0px;word-spacing:0px;fill:#00d619;fill-opacity:1;stroke:none;font-family:Early GameBoy;-inkscape-font-specification:Early GameBoy"
         id="path2998"
         inkscape:connector-curvature="0" />
      <path
         d="m -130.04726,389.36997 0,-30 30,0 0,5 -20,0 0,10 15,0 0,5 -15,0 0,10 -10,0"
         style="font-size:40px;font-style:normal;font-variant:normal;font-weight:normal;font-stretch:normal;line-height:125%;letter-spacing:0px;word-spacing:0px;fill:#00d619;fill-opacity:1;stroke:none;font-family:Early GameBoy;-inkscape-font-specification:Early GameBoy"
         id="path3000"
         inkscape:connector-curvature="0" />
      <path
         d="m -95.04738,389.36997 0,-30 5,0 0,10 15,0 0,-10 10,0 0,30 -10,0 0,-15 -15,0 0,15 -5,0"
         style="font-size:40px;font-style:normal;font-variant:normal;font-weight:normal;font-stretch:normal;line-height:125%;letter-spacing:0px;word-spacing:0px;fill:#00d619;fill-opacity:1;stroke:none;font-family:Early GameBoy;-inkscape-font-specification:Early GameBoy"
         id="path3002"
         inkscape:connector-curvature="0" />
      <path
         sodipodi:nodetypes="cccc"
         inkscape:connector-curvature="0"
         id="path3009"
         style="font-size:40px;font-style:normal;font-variant:normal;font-weight:normal;font-stretch:normal;line-height:125%;letter-spacing:0px;word-spacing:0px;fill:#00d619;fill-opacity:1;stroke:none;font-family:Early GameBoy;-inkscape-font-specification:Early GameBoy"
         d="m -235.047,364.36926 30,0 0,5 -30,0" />
      <path
         d="m -235.047,379.36956 30,0 0,5 -30,0"
         style="font-size:40px;font-style:normal;font-variant:normal;font-weight:normal;font-stretch:normal;line-height:125%;letter-spacing:0px;word-spacing:0px;fill:#00d619;fill-opacity:1;stroke:none;font-family:Early GameBoy;-inkscape-font-specification:Early GameBoy"
         id="path3011"
         inkscape:connector-curvature="0"
         sodipodi:nodetypes="cccc" />
      <rect
         y="359.36996"
         x="-215.047"
         height="30"
         width="5"
         id="rect3033"
         style="fill:#00d619;fill-opacity:1;stroke:#000000;stroke-width:0;stroke-linecap:square;stroke-linejoin:round;stroke-miterlimit:4;stroke-opacity:1;stroke-dasharray:none;stroke-dashoffset:0" />
      <rect
         y="359.36996"
         x="-230.047"
         height="30"
         width="5"
         id="rect3037"
         style="fill:#00d619;fill-opacity:1;stroke:#000000;stroke-width:0;stroke-linecap:square;stroke-linejoin:round;stroke-miterlimit:4;stroke-opacity:1;stroke-dasharray:none;stroke-dashoffset:0" />
    </g>
  </g>
</svg>
